<?xml version="1.0" standalone="no"?>
<!DOCTYPE svg PUBLIC "-//W3C//DTD SVG 20010904//EN"
 "http://www.w3.org/TR/2001/REC-SVG-20010904/DTD/svg10.dtd">
<svg version="1.0" xmlns="http://www.w3.org/2000/svg"
 width="3790.000000pt" height="1432.000000pt" viewBox="0 0 3790.000000 1432.000000"
 preserveAspectRatio="xMidYMid meet">
<metadata>
Created by potrace 1.15, written by Peter Selinger 2001-2017
</metadata>
<g transform="translate(0.000000,1432.000000) scale(0.100000,-0.100000)"
fill="#00b4e3" stroke="none">
<path d="M8668 10453 l-46 -27 -4 -64 c-2 -35 -1 -67 2 -71 3 -4 29 -21 57
-39 l53 -32 60 36 60 35 0 64 0 65 -52 30 c-29 16 -60 30 -68 30 -8 0 -36 -13
-62 -27z"/>
<path d="M8617 9992 l-98 -56 3 -125 3 -124 60 -37 c33 -20 79 -47 102 -59
l41 -24 106 59 106 59 -2 124 -3 125 -95 57 c-52 32 -102 58 -110 58 -8 -1
-59 -26 -113 -57z"/>
<path d="M7870 9996 l-75 -44 -7 -53 c-16 -133 -17 -129 71 -182 44 -26 81
-47 84 -47 11 0 152 83 160 94 4 6 6 49 5 95 l-3 84 -78 48 c-43 27 -79 49
-80 48 -1 0 -36 -19 -77 -43z"/>
<path d="M9423 9987 l-73 -42 0 -92 0 -92 76 -46 c42 -25 81 -45 88 -43 6 2
44 21 83 43 l73 40 0 95 0 95 -74 43 c-40 23 -79 42 -87 41 -8 -1 -47 -20 -86
-42z"/>
<path d="M7068 9534 l-78 -45 0 -92 0 -92 80 -48 80 -48 77 43 78 44 7 88 c5
58 4 94 -3 102 -12 15 -144 94 -156 94 -4 0 -43 -21 -85 -46z"/>
<path d="M10239 9542 c-102 -57 -99 -52 -99 -151 l0 -86 81 -48 81 -47 76 43
77 43 3 96 3 95 -73 44 c-40 24 -75 45 -78 46 -3 1 -35 -15 -71 -35z"/>
<path d="M7685 9406 c-109 -62 -131 -79 -136 -103 -4 -15 -7 -86 -7 -158 l-1
-130 132 -78 132 -78 35 19 c19 10 81 45 138 76 l103 57 -3 157 -3 156 -113
66 c-62 37 -118 72 -124 78 -7 7 -14 12 -17 12 -4 0 -64 -34 -136 -74z"/>
<path d="M9502 9403 l-132 -76 2 -155 3 -155 129 -79 c71 -43 132 -78 135 -78
3 0 65 33 136 74 l130 73 3 159 2 159 -129 78 c-71 42 -133 77 -138 76 -4 -1
-68 -35 -141 -76z"/>
<path d="M24500 7480 l0 -2000 85 0 85 0 0 2000 0 2000 -85 0 -85 0 0 -2000z"/>
<path d="M26277 9463 c-12 -12 -8 -148 5 -161 7 -7 33 -12 58 -12 25 0 51 5
58 12 7 7 12 40 12 78 0 38 -5 71 -12 78 -13 13 -110 17 -121 5z"/>
<path d="M8560 9360 l-155 -88 -9 -181 c-5 -99 -6 -186 -3 -193 2 -8 77 -57
166 -110 l160 -97 163 91 c90 50 164 91 164 92 1 1 5 87 9 191 l7 191 -162 97
c-89 53 -168 97 -174 96 -6 0 -81 -40 -166 -89z"/>
<path d="M17700 9394 c-19 -2 -78 -9 -130 -15 -314 -35 -625 -144 -815 -286
-264 -196 -386 -448 -372 -763 3 -69 13 -154 23 -190 22 -87 84 -218 138 -295
95 -132 277 -269 497 -374 154 -74 204 -91 869 -301 644 -204 780 -255 921
-351 64 -43 109 -92 141 -152 20 -36 23 -57 23 -142 0 -90 -3 -105 -28 -155
-95 -184 -298 -266 -708 -285 -549 -26 -1104 127 -1472 406 -91 70 -92 70
-142 64 -38 -4 -56 -12 -75 -34 -14 -16 -80 -94 -148 -174 l-123 -145 52 -49
c339 -317 896 -531 1518 -584 178 -15 627 -6 791 15 831 110 1260 473 1260
1066 0 263 -75 449 -254 625 -148 147 -394 291 -656 384 -63 22 -357 117 -654
211 -296 94 -591 191 -655 216 -202 79 -318 161 -369 259 -22 43 -26 63 -26
140 -1 109 14 146 91 223 67 67 169 116 299 144 83 18 132 22 299 21 205 0
291 -8 475 -44 288 -57 594 -203 830 -397 71 -58 78 -62 127 -62 l52 0 133
158 c73 86 140 165 147 175 13 16 9 24 -45 78 -32 33 -99 91 -149 128 -315
236 -707 390 -1185 466 -100 16 -587 30 -680 19z"/>
<path d="M22075 9389 c-212 -20 -482 -84 -669 -159 -248 -98 -483 -261 -652
-452 -177 -198 -319 -479 -382 -753 -50 -213 -70 -491 -52 -719 23 -305 75
-513 186 -741 260 -538 755 -868 1461 -975 198 -31 568 -38 758 -16 395 46
750 174 1060 381 107 71 268 203 288 236 8 13 -17 49 -132 185 l-143 169 -54
8 -54 8 -77 -67 c-108 -92 -249 -184 -373 -243 -495 -236 -1108 -221 -1497 36
-186 122 -339 333 -421 579 -117 348 -117 879 0 1228 143 430 432 683 872 763
123 23 378 22 506 -1 344 -61 596 -184 860 -419 72 -64 77 -67 127 -67 l52 0
146 172 c80 94 145 175 145 179 0 4 -42 47 -94 96 -323 306 -805 520 -1288
572 -112 13 -441 12 -573 0z"/>
<path d="M25303 9379 c-18 -18 -19 -1099 -1 -1117 9 -9 70 -12 213 -12 306 1
388 17 475 96 53 48 77 95 90 177 21 133 -30 252 -136 318 l-34 21 25 20 c14
11 37 41 53 66 24 42 27 56 27 142 0 78 -4 102 -22 135 -30 57 -78 99 -148
132 -60 28 -62 28 -295 31 -180 3 -238 0 -247 -9z m462 -133 c22 -9 50 -27 64
-39 76 -71 63 -213 -25 -268 -36 -22 -50 -24 -206 -27 l-168 -4 0 183 0 182
148 -5 c105 -4 158 -10 187 -22z m68 -495 c68 -33 100 -79 105 -151 6 -77 -11
-122 -60 -164 -54 -46 -105 -56 -293 -56 l-155 0 0 201 0 201 178 -4 c162 -3
181 -5 225 -27z"/>
<path d="M26702 9308 c-8 -8 -12 -44 -12 -105 l0 -93 -58 0 c-67 0 -82 -11
-82 -60 0 -49 15 -60 81 -60 l57 0 4 -297 c4 -315 7 -342 56 -397 44 -49 149
-69 236 -45 l38 11 -6 46 c-3 25 -10 50 -15 55 -5 5 -35 10 -67 11 -50 1 -59
4 -78 29 -20 27 -21 42 -24 307 l-4 279 89 3 88 3 0 55 0 55 -87 3 -87 3 -3
102 -3 102 -55 3 c-34 2 -60 -2 -68 -10z"/>
<path d="M12422 9267 l-32 -33 0 -1755 0 -1755 33 -33 34 -32 1114 4 c1198 4
1174 3 1439 57 489 101 807 365 902 748 31 123 31 360 0 477 -28 105 -99 245
-161 320 -87 105 -229 208 -373 270 -38 16 -68 32 -68 36 0 3 26 22 58 42 267
166 407 479 363 812 -57 434 -403 724 -988 830 -236 42 -322 45 -1329 45
l-960 0 -32 -33z m1883 -497 c116 -13 195 -33 272 -70 179 -83 266 -265 234
-488 -24 -174 -105 -287 -253 -357 -140 -65 -163 -68 -760 -72 l-538 -5 0 501
0 501 478 0 c262 0 518 -5 567 -10z m155 -1520 c297 -31 471 -148 534 -359 23
-78 30 -195 17 -281 -38 -246 -221 -385 -551 -420 -52 -5 -344 -10 -647 -10
l-553 0 0 540 0 540 553 0 c303 0 595 -5 647 -10z"/>
<path d="M26277 9104 c-4 -4 -7 -192 -7 -419 0 -306 3 -414 12 -423 17 -17
103 -15 117 2 8 9 10 130 9 427 l-3 414 -60 3 c-34 2 -64 0 -68 -4z"/>
<path d="M6198 8917 l-58 -32 0 -67 0 -67 57 -37 c55 -35 58 -36 82 -20 15 9
41 24 59 33 32 16 32 18 32 87 l0 71 -52 30 c-29 17 -55 31 -58 32 -3 1 -31
-12 -62 -30z"/>
<path d="M11137 8917 l-57 -32 2 -69 3 -70 57 -33 56 -33 59 33 58 33 0 69 0
69 -55 32 c-30 18 -57 33 -60 33 -3 0 -31 -15 -63 -32z"/>
<path d="M6648 8859 l-108 -61 0 -127 0 -127 105 -62 c58 -34 109 -62 113 -61
4 0 52 26 107 58 l100 57 8 55 c4 30 6 88 5 128 l-3 75 -105 63 c-58 35 -107
63 -110 63 -3 -1 -53 -28 -112 -61z"/>
<path d="M10595 8851 l-100 -58 -3 -121 -3 -120 101 -61 c56 -34 104 -61 107
-61 3 0 52 26 109 57 l104 58 0 122 0 122 -101 60 c-56 34 -105 61 -108 60 -3
0 -51 -27 -106 -58z"/>
<path d="M7210 8607 l-165 -92 -6 -95 c-4 -52 -7 -141 -8 -196 l-1 -101 169
-101 169 -101 171 96 171 96 0 196 -1 196 -164 98 c-90 53 -165 97 -167 97 -2
0 -77 -42 -168 -93z"/>
<path d="M9923 8596 l-163 -91 -2 -162 c-1 -90 -2 -175 -2 -190 -1 -24 14 -36
161 -124 l162 -97 165 91 165 92 1 191 0 192 -157 93 c-86 52 -159 95 -162 95
-3 1 -79 -39 -168 -90z"/>
<path d="M25190 7470 l0 -690 1565 0 1565 0 0 690 0 690 -1565 0 -1565 0 0
-690z m676 605 c64 -21 139 -77 176 -130 32 -46 64 -162 54 -199 -6 -24 -11
-26 -60 -26 -61 0 -71 8 -81 67 -21 130 -177 211 -334 173 -139 -33 -203 -166
-125 -259 38 -46 77 -65 237 -120 82 -28 172 -63 200 -78 79 -43 143 -111 161
-174 67 -224 -101 -399 -383 -399 -92 0 -162 15 -238 52 -116 57 -183 157
-183 275 l0 43 58 0 c65 0 82 -11 82 -52 0 -46 37 -106 83 -135 59 -37 119
-53 202 -53 124 0 210 44 241 125 14 39 15 52 5 87 -24 79 -79 114 -287 183
-221 73 -309 136 -340 243 -20 69 -14 162 14 218 25 49 100 120 150 141 105
46 263 53 368 18z m612 -77 c8 -8 12 -46 12 -105 l0 -93 78 0 c89 0 102 -8
102 -60 0 -52 -13 -60 -102 -60 l-79 0 3 -291 3 -291 25 -20 c20 -16 35 -19
73 -15 55 5 73 -11 79 -73 3 -32 0 -36 -32 -47 -88 -30 -206 -5 -247 53 -40
57 -43 87 -43 390 l0 293 -67 3 -68 3 0 55 0 55 68 3 67 3 0 98 c0 54 3 101 7
104 11 12 108 8 121 -5z m813 -202 c59 -21 114 -68 142 -119 21 -40 22 -59 28
-342 4 -165 11 -314 17 -331 15 -48 -3 -64 -77 -64 -57 0 -61 2 -61 23 0 12
-3 32 -6 44 -6 22 -7 21 -56 -12 -63 -44 -134 -65 -217 -65 -78 0 -126 12
-172 43 -110 74 -138 252 -56 359 66 86 191 128 380 128 l107 0 0 63 c0 45 -6
71 -20 95 -66 107 -293 90 -330 -25 -19 -57 -27 -63 -86 -63 l-54 0 0 50 c0
105 76 190 200 225 67 18 194 14 261 -9z m833 13 c2 -2 -1 -34 -6 -70 l-10
-66 -54 5 c-98 8 -172 -37 -209 -125 -12 -28 -15 -92 -15 -312 0 -202 -3 -280
-12 -289 -17 -17 -103 -15 -117 2 -8 9 -10 130 -9 427 l3 414 63 3 62 3 0 -29
c0 -42 8 -44 50 -11 52 42 112 60 188 55 35 -2 65 -5 66 -7z"/>
<path d="M27076 7329 c-86 -20 -146 -78 -146 -141 0 -109 97 -154 239 -112 39
11 67 29 102 64 l49 49 0 76 0 75 -102 -1 c-57 -1 -121 -5 -142 -10z"/>
<path d="M6218 8074 l-78 -45 0 -90 c0 -49 -1 -92 -2 -96 -2 -9 141 -101 158
-102 7 -1 48 20 93 45 l81 45 0 97 0 97 -77 45 c-43 25 -82 46 -88 47 -5 1
-45 -19 -87 -43z"/>
<path d="M11068 8073 l-78 -45 0 -98 0 -99 75 -45 c42 -25 80 -46 84 -46 5 0
45 21 90 46 l81 45 0 97 0 97 -77 45 c-43 25 -82 46 -88 47 -5 1 -45 -19 -87
-44z"/>
<path d="M6635 7707 l-130 -73 -3 -159 -2 -160 127 -75 c71 -41 133 -76 138
-77 6 -2 69 30 140 71 l130 73 8 148 c5 81 6 153 3 160 -5 15 -251 165 -269
165 -7 0 -70 -33 -142 -73z"/>
<path d="M10550 7697 l-125 -72 -3 -151 -3 -151 131 -78 131 -78 42 23 c23 13
83 47 132 75 l90 50 3 152 3 152 -128 76 c-71 41 -132 75 -138 75 -5 -1 -66
-33 -135 -73z"/>
<path d="M5855 7572 l-50 -27 -3 -72 -3 -72 48 -31 c26 -16 53 -30 59 -30 6 0
36 14 67 31 l57 31 0 66 0 67 -56 33 c-31 17 -59 32 -62 32 -4 0 -29 -13 -57
-28z"/>
<path d="M11490 7567 l-55 -32 -3 -65 -2 -65 56 -32 c30 -18 61 -33 67 -32 7
0 32 13 57 28 l45 27 3 71 3 71 -51 31 c-28 17 -54 31 -58 31 -4 0 -32 -15
-62 -33z"/>
<path d="M6222 7152 l-83 -46 3 -95 3 -94 77 -48 78 -48 82 48 83 47 0 94 0
94 -50 29 c-27 16 -63 37 -80 47 l-30 18 -83 -46z"/>
<path d="M11068 7153 l-78 -45 0 -97 0 -96 80 -48 81 -48 84 47 85 48 0 95 0
96 -77 45 c-43 25 -82 46 -88 47 -5 1 -45 -19 -87 -44z"/>
<path d="M7210 6929 c-85 -48 -158 -90 -161 -91 -4 -2 -10 -91 -14 -198 l-7
-195 167 -98 c91 -54 171 -97 178 -95 7 2 86 43 175 93 l162 90 0 195 0 196
-164 97 c-91 53 -168 97 -173 96 -4 0 -78 -41 -163 -90z"/>
<path d="M9920 6920 l-155 -88 -8 -129 c-4 -70 -6 -157 -5 -193 l3 -64 163
-97 163 -96 112 63 c62 35 135 76 163 91 l51 27 6 140 c4 78 7 164 7 192 l0
51 -161 97 c-88 53 -166 96 -172 95 -7 -1 -82 -41 -167 -89z"/>
<path d="M26347 6694 c-4 -4 -7 -273 -7 -599 0 -446 3 -594 12 -603 17 -17
103 -15 117 2 8 9 10 177 9 607 l-3 594 -60 3 c-34 2 -64 0 -68 -4z"/>
<path d="M27617 6694 c-4 -4 -7 -273 -7 -599 0 -446 3 -594 12 -603 7 -7 34
-12 60 -12 46 0 48 1 48 29 0 43 14 46 60 12 53 -38 125 -55 214 -49 199 13
306 164 306 433 0 209 -68 358 -191 421 -95 48 -236 41 -321 -16 l-43 -29 -5
207 -5 207 -60 3 c-34 2 -64 0 -68 -4z m420 -483 c76 -35 121 -131 130 -276
13 -207 -66 -335 -205 -335 -84 0 -141 28 -189 92 -22 31 -23 38 -23 218 l0
187 28 39 c37 50 53 63 99 80 53 19 111 17 160 -5z"/>
<path d="M25602 6624 c-70 -18 -106 -38 -158 -86 -54 -50 -98 -117 -125 -194
-19 -50 -23 -87 -27 -246 -7 -286 20 -389 133 -507 77 -81 149 -112 270 -119
249 -13 428 125 429 333 l1 70 -49 3 c-61 4 -86 -16 -86 -67 -1 -80 -76 -175
-159 -199 -21 -7 -70 -12 -108 -12 -124 0 -216 68 -267 197 -25 61 -35 352
-16 447 40 205 198 307 386 251 94 -28 164 -114 164 -201 0 -22 5 -45 12 -52
7 -7 38 -12 70 -12 l58 0 0 53 c0 119 -56 225 -150 286 -101 66 -256 88 -378
55z"/>
<path d="M6643 6462 l-103 -57 0 -126 0 -127 103 -61 c57 -34 107 -61 112 -61
5 0 55 25 111 57 l101 56 7 60 c3 33 6 90 6 127 l0 68 -105 61 c-57 34 -110
61 -117 61 -7 -1 -59 -27 -115 -58z"/>
<path d="M10600 6455 l-95 -53 -5 -117 c-6 -134 -15 -118 111 -193 l87 -52
101 58 101 57 0 65 c0 36 3 88 6 116 l6 51 -101 62 c-56 33 -105 61 -109 61
-4 0 -50 -25 -102 -55z"/>
<path d="M26722 6328 c-15 -15 -17 -447 -1 -568 17 -136 62 -214 154 -263 33
-18 56 -22 140 -22 106 0 156 16 213 68 l22 20 0 -41 0 -42 54 0 c33 0 58 5
65 14 8 9 10 130 9 427 l-3 414 -65 0 -65 0 -5 -305 c-5 -279 -7 -308 -24
-337 -37 -61 -103 -93 -191 -93 -62 0 -108 27 -139 80 -20 33 -21 53 -24 335
-2 193 -7 304 -14 312 -13 17 -110 17 -126 1z"/>
<path d="M6198 6227 l-58 -32 0 -72 0 -71 57 -35 57 -35 55 31 c31 17 59 36
63 41 4 6 8 39 8 73 l0 61 -57 34 c-32 18 -60 34 -63 35 -3 1 -31 -12 -62 -30z"/>
<path d="M11137 6223 l-58 -36 3 -65 3 -66 58 -34 57 -34 58 34 57 34 3 66 3
65 -61 37 c-34 20 -62 36 -63 35 -1 0 -28 -17 -60 -36z"/>
<path d="M8570 6160 c-85 -48 -161 -93 -167 -99 -10 -9 -13 -62 -13 -199 l1
-187 164 -98 164 -97 163 91 c90 51 166 97 170 103 5 6 7 94 5 195 l-2 185
-163 98 c-90 54 -164 98 -165 97 -1 0 -72 -40 -157 -89z"/>
<path d="M7685 6016 l-130 -73 -2 -159 -3 -159 127 -75 c69 -41 130 -76 134
-78 4 -2 68 31 143 73 l136 77 0 157 0 156 -131 78 c-71 42 -133 77 -137 77
-4 0 -65 -33 -137 -74z"/>
<path d="M9525 6025 c-167 -96 -150 -68 -150 -246 l0 -153 132 -79 132 -79
135 77 136 76 0 157 0 157 -127 75 c-70 41 -131 76 -137 76 -6 1 -60 -26 -121
-61z"/>
<path d="M7074 5697 l-71 -40 -7 -90 c-4 -60 -2 -94 5 -103 6 -7 43 -32 82
-55 l72 -41 82 43 81 43 4 90 c2 50 0 96 -4 103 -13 17 -144 93 -160 92 -7 -1
-45 -19 -84 -42z"/>
<path d="M10220 5697 l-75 -43 0 -98 0 -99 77 -48 77 -47 85 46 85 47 1 97 0
96 -78 46 c-43 25 -83 46 -88 46 -5 -1 -43 -20 -84 -43z"/>
<path d="M8623 5312 l-102 -57 -2 -112 c-1 -62 -2 -118 -3 -125 -1 -8 195
-138 209 -138 1 0 49 26 106 59 l104 59 3 125 3 125 -104 61 c-57 33 -105 61
-108 60 -2 0 -50 -26 -106 -57z"/>
<path d="M7870 5237 l-75 -43 -3 -94 -3 -95 82 -47 81 -48 77 45 78 45 7 84
c3 47 4 90 1 98 -6 13 -147 98 -162 98 -5 -1 -42 -20 -83 -43z"/>
<path d="M9428 5237 l-78 -42 0 -95 0 -95 80 -48 80 -48 77 43 c87 49 90 55
92 165 l1 71 -78 46 c-43 25 -83 46 -88 46 -5 0 -44 -19 -86 -43z"/>
<path d="M8663 4678 l-53 -30 0 -64 0 -64 57 -37 57 -36 63 33 63 34 0 66 0
65 -54 33 c-30 17 -60 32 -68 31 -7 0 -37 -14 -65 -31z"/>
</g>
</svg>
