<svg xmlns="http://www.w3.org/2000/svg" xmlns:xlink="http://www.w3.org/1999/xlink" viewBox="0 0 1112.39 730.42"><defs><style>.cls-1{fill:url(#linear-gradient);}.cls-2,.cls-24,.cls-25{fill:none;}.cls-3{fill:url(#linear-gradient-2);}.cls-4{isolation:isolate;}.cls-5{fill:url(#linear-gradient-3);}.cls-21,.cls-6{fill:#231f20;}.cls-7{clip-path:url(#clip-path);}.cls-8{clip-path:url(#clip-path-2);}.cls-9{fill:url(#linear-gradient-6);}.cls-10{clip-path:url(#clip-path-3);}.cls-11{fill:url(#linear-gradient-7);}.cls-12{fill:url(#linear-gradient-8);}.cls-13,.cls-16{opacity:0.5;}.cls-13{mix-blend-mode:multiply;fill:url(#radial-gradient);}.cls-14{clip-path:url(#clip-path-4);}.cls-15,.cls-22{opacity:0.8;}.cls-15,.cls-19,.cls-21{mix-blend-mode:screen;}.cls-15{fill:url(#linear-gradient-9);}.cls-16{mix-blend-mode:lighten;}.cls-17{clip-path:url(#clip-path-5);}.cls-18{mix-blend-mode:hard-light;fill:url(#linear-gradient-10);}.cls-19{opacity:0.05;}.cls-20{clip-path:url(#clip-path-6);}.cls-23{fill:url(#linear-gradient-12);}.cls-24,.cls-25{stroke-miterlimit:10;stroke-width:4.12px;opacity:0.2;mix-blend-mode:overlay;}.cls-24{stroke:url(#linear-gradient-13);}.cls-25{stroke:url(#linear-gradient-14);}.cls-26{clip-path:url(#clip-path-7);}</style><linearGradient id="linear-gradient" x1="396.33" y1="148.55" x2="628.14" y2="148.55" gradientUnits="userSpaceOnUse"><stop offset="0" stop-color="#a6a8ab"/><stop offset="0.16" stop-color="#d0d2d3"/><stop offset="0.31" stop-color="#a6a8ab"/><stop offset="1" stop-color="#231f20"/></linearGradient><linearGradient id="linear-gradient-2" x1="206.76" y1="379.76" x2="586.8" y2="379.76" gradientUnits="userSpaceOnUse"><stop offset="0" stop-color="#6d6e70" stop-opacity="0"/><stop offset="0.3" stop-color="#fff"/><stop offset="0.3" stop-color="#fefefe"/><stop offset="0.37" stop-color="#b8b8b9"/><stop offset="0.43" stop-color="#848586"/><stop offset="0.48" stop-color="#646567"/><stop offset="0.5" stop-color="#58595b"/><stop offset="0.77" stop-color="#fff"/><stop offset="0.99" stop-color="#58595b" stop-opacity="0"/></linearGradient><linearGradient id="linear-gradient-3" x1="396.6" y1="612.57" x2="396.6" y2="146.96" gradientUnits="userSpaceOnUse"><stop offset="0" stop-color="#808184"/><stop offset="0.16" stop-color="#e6e7e8"/><stop offset="0.17" stop-color="#d0d2d4"/><stop offset="0.18" stop-color="#bebfc1"/><stop offset="0.2" stop-color="#b0b2b5"/><stop offset="0.21" stop-color="#a8aaad"/><stop offset="0.24" stop-color="#a6a8ab"/><stop offset="0.38" stop-color="#a6a8ab"/><stop offset="0.49" stop-color="#6d6e70"/><stop offset="0.68" stop-color="#a6a8ab"/><stop offset="1" stop-color="#6d6e70"/></linearGradient><clipPath id="clip-path" transform="translate(457.4 -14.49)"><path class="cls-1" d="M400.8,116.27l-4.47-4.49c125.28,61.38,222.23,68.67,227.34,69.06l4.47,4.49C623,184.94,526.08,177.65,400.8,116.27Z"/></clipPath><clipPath id="clip-path-2" transform="translate(457.4 -14.49)"><path class="cls-2" d="M302.64,577.69l-4.47-4.49c-67.73-68-144.69-191-130.11-392.36l4.47,4.49C158,386.74,234.92,509.71,302.64,577.69Z"/></clipPath><linearGradient id="linear-gradient-6" x1="166.14" y1="380.77" x2="305.61" y2="380.77" xlink:href="#linear-gradient"/><clipPath id="clip-path-3" transform="translate(457.4 -14.49)"><path class="cls-2" d="M172.53,185.33l-4.47-4.49c5.11-.39,102.18-7.68,228.27-69.06l4.47,4.49C274.71,177.65,177.64,184.94,172.53,185.33Z"/></clipPath><linearGradient id="linear-gradient-7" x1="168.06" y1="148.55" x2="400.8" y2="148.55" gradientUnits="userSpaceOnUse"><stop offset="0" stop-color="#a6a8ab"/><stop offset="0.16" stop-color="#d0d2d3"/><stop offset="0.31" stop-color="#a6a8ab"/><stop offset="1" stop-color="#58595b"/></linearGradient><linearGradient id="linear-gradient-8" x1="170.73" y1="382.01" x2="629.27" y2="382.01" gradientUnits="userSpaceOnUse"><stop offset="0" stop-color="#808184"/><stop offset="0.16" stop-color="#e6e7e8"/><stop offset="0.31" stop-color="#a6a8ab"/><stop offset="1" stop-color="#231f20"/></linearGradient><radialGradient id="radial-gradient" cx="400" cy="689.7" r="181.95" gradientTransform="translate(0 551.76) scale(1 0.2)" gradientUnits="userSpaceOnUse"><stop offset="0" stop-color="#58595b"/><stop offset="0.99" stop-color="#e6e7e8" stop-opacity="0"/></radialGradient><clipPath id="clip-path-4" transform="translate(457.4 -14.49)"><path class="cls-2" d="M584.92,217.33s-84.33-6.34-188.09-57v-.05l-.05,0,0,0v.05c-103.76,50.69-188.09,57-188.09,57C190.2,502.17,392,597,396.74,599.23v0l0,0,.05,0v0C401.57,597,603.37,502.17,584.92,217.33Z"/></clipPath><linearGradient id="linear-gradient-9" x1="68.79" y1="348.23" x2="399.68" y2="348.23" gradientUnits="userSpaceOnUse"><stop offset="0" stop-color="#fff"/><stop offset="0.18" stop-color="#fff" stop-opacity="0.99"/><stop offset="0.31" stop-color="#fff" stop-opacity="0.95"/><stop offset="0.43" stop-color="#fff" stop-opacity="0.89"/><stop offset="0.54" stop-color="#fff" stop-opacity="0.8"/><stop offset="0.64" stop-color="#fff" stop-opacity="0.69"/><stop offset="0.74" stop-color="#fff" stop-opacity="0.54"/><stop offset="0.83" stop-color="#fff" stop-opacity="0.38"/><stop offset="0.92" stop-color="#fff" stop-opacity="0.19"/><stop offset="1" stop-color="#fff" stop-opacity="0"/></linearGradient><clipPath id="clip-path-5" transform="translate(457.4 -14.49)"><path class="cls-2" d="M585.36,217s-84.53-6.35-188.53-57.16v0l-.05,0,0,0v0C292.74,210.6,208.21,217,208.21,217,189.71,502.45,392,597.55,396.74,599.74v0l0,0,.05,0v0C401.58,597.55,603.85,502.45,585.36,217Z"/></clipPath><linearGradient id="linear-gradient-10" x1="-457.4" y1="392.97" x2="-125.73" y2="392.97" gradientUnits="userSpaceOnUse"><stop offset="0" stop-color="#fff"/><stop offset="0.13" stop-color="#fff" stop-opacity="0.98"/><stop offset="0.25" stop-color="#fff" stop-opacity="0.94"/><stop offset="0.38" stop-color="#fff" stop-opacity="0.86"/><stop offset="0.5" stop-color="#fff" stop-opacity="0.75"/><stop offset="0.63" stop-color="#fff" stop-opacity="0.61"/><stop offset="0.75" stop-color="#fff" stop-opacity="0.43"/><stop offset="0.88" stop-color="#fff" stop-opacity="0.23"/><stop offset="1" stop-color="#fff" stop-opacity="0"/></linearGradient><clipPath id="clip-path-6" transform="translate(457.4 -14.49)"><path class="cls-3" d="M585.61,216.74S501,210.38,396.83,159.5v-.05l-.05,0,0,0v.05C292.6,210.38,208,216.74,208,216.74,189.44,502.61,392,597.84,396.74,600v.05l0,0,.05,0V600C401.59,597.84,604.13,502.61,585.61,216.74Z"/></clipPath><linearGradient id="linear-gradient-12" x1="200.42" y1="177.48" x2="392.39" y2="177.48" gradientUnits="userSpaceOnUse"><stop offset="0" stop-color="#fff" stop-opacity="0"/><stop offset="0.4" stop-color="#fff"/><stop offset="0.49" stop-color="#fff" stop-opacity="0.79"/><stop offset="0.59" stop-color="#fff" stop-opacity="0.55"/><stop offset="0.69" stop-color="#fff" stop-opacity="0.36"/><stop offset="0.78" stop-color="#fff" stop-opacity="0.2"/><stop offset="0.87" stop-color="#fff" stop-opacity="0.09"/><stop offset="0.94" stop-color="#fff" stop-opacity="0.02"/><stop offset="0.99" stop-color="#fff" stop-opacity="0"/></linearGradient><linearGradient id="linear-gradient-13" x1="397.36" y1="573.45" x2="554.18" y2="573.45" xlink:href="#linear-gradient-12"/><linearGradient id="linear-gradient-14" x1="392.26" y1="573.45" x2="549.09" y2="573.45" gradientTransform="matrix(-1, 0, 0, 1, 788.67, 0)" xlink:href="#linear-gradient-12"/><clipPath id="clip-path-7" transform="translate(457.4 -14.49)"><path class="cls-2" d="M628.14,185.33c-5.1-.39-102.06-7.68-227.34-69.06-126.09,61.38-223.16,68.67-228.27,69.06C147.57,530.22,391,645.1,396.87,647.74,402.63,645.1,647.85,530.22,628.14,185.33Zm-231.49,424v0l0,0-.05,0v0c-5-2.29-216-101.54-196.74-399.47,0,0,88.21-6.63,196.74-59.66v0l.05,0,0,0v0c108.53,53,196.74,59.66,196.74,59.66C612.69,507.79,401.61,607,396.65,609.33Z"/></clipPath></defs><title>SF-shield</title><g class="cls-4"><g id="Objects"><path class="cls-5" d="M596.13,207.49S506.69,200.77,396.65,147v0l0,0-.05,0v0c-110,53.77-199.48,60.49-199.48,60.49-19.57,302.09,194.45,402.71,199.48,405v.05l.05,0,0,0v-.05C401.68,610.2,615.7,509.58,596.13,207.49Z" transform="translate(457.4 -14.49)"/><path class="cls-6" d="M587.74,214.74s-85.68-6.45-191.09-58v0l0,0-.05,0v0c-105.41,51.5-191.1,58-191.1,58-18.74,289.38,186.28,385.77,191.1,388v0l.05,0,0,0v0C401.46,600.51,606.49,504.12,587.74,214.74Z" transform="translate(457.4 -14.49)"/><path class="cls-1" d="M400.8,116.27l-4.47-4.49c125.28,61.38,222.23,68.67,227.34,69.06l4.47,4.49C623,184.94,526.08,177.65,400.8,116.27Z" transform="translate(457.4 -14.49)"/><g class="cls-7"><path class="cls-1" d="M623.67,180.84c-1.11-.09-6.53-.49-15.63-1.71-22.17-3-66.14-10.7-122.55-30.2a787.72,787.72,0,0,1-89.16-37.15l4.47,4.49A787.72,787.72,0,0,0,490,153.42c56.41,19.5,100.38,27.24,122.55,30.2,9.1,1.22,14.52,1.62,15.63,1.71Z" transform="translate(457.4 -14.49)"/></g><g class="cls-4"><g class="cls-8"><path class="cls-9" d="M305.61,580.75l-4.51-4.53C232.74,507.6,153.2,384.07,167.91,180.78l4.52,4.54C157.71,388.6,237.26,512.13,305.61,580.75" transform="translate(457.4 -14.49)"/></g></g><g class="cls-4"><g class="cls-10"><path class="cls-11" d="M396.33,111.78a800.78,800.78,0,0,1-89.14,37,688.59,688.59,0,0,1-102,27c-22,3.95-35.32,4.95-37.12,5.09l4.47,4.49c1.81-.14,15.11-1.14,37.12-5.09a688.27,688.27,0,0,0,102-27,800,800,0,0,0,89.14-37Z" transform="translate(457.4 -14.49)"/></g></g><path class="cls-12" d="M628.14,185.33c-5.1-.39-102.06-7.68-227.34-69.06-126.09,61.38-223.16,68.67-228.27,69.06C147.57,530.22,391,645.1,396.87,647.74,402.63,645.1,647.85,530.22,628.14,185.33Zm-231.49,424v0l0,0-.05,0v0c-5-2.29-216-101.54-196.74-399.47,0,0,88.21-6.63,196.74-59.66v0l.05,0,0,0v0c108.53,53,196.74,59.66,196.74,59.66C612.69,507.79,401.61,607,396.65,609.33Z" transform="translate(457.4 -14.49)"/><path class="cls-13" d="M655,689.7c0,19.07-114.16,34.52-255,34.52S145,708.77,145,689.7s114.16-34.51,255-34.51S655,670.64,655,689.7Z" transform="translate(457.4 -14.49)"/><g class="cls-14"><path class="cls-15" d="M399.68,60.47l-3,621.51S-39.62,255.49,94.34,95.93,399.68,60.47,399.68,60.47Z" transform="translate(457.4 -14.49)"/></g><g class="cls-16"><g class="cls-17"><path class="cls-18" d="M-125.73,104.53l-3,623S-566,300-431.79,140.08-125.73,104.53-125.73,104.53Z" transform="translate(457.4 -14.49)"/></g></g><g class="cls-19"><path class="cls-3" d="M585.61,216.74S501,210.38,396.83,159.5v-.05l-.05,0,0,0v.05C292.6,210.38,208,216.74,208,216.74,189.44,502.61,392,597.84,396.74,600v.05l0,0,.05,0V600C401.59,597.84,604.13,502.61,585.61,216.74Z" transform="translate(457.4 -14.49)"/><g class="cls-20"><path class="cls-21" d="M-63.91,121.11l-3,623.79s-437.94-428-303.49-588.2S-63.91,121.11-63.91,121.11Z" transform="translate(457.4 -14.49)"/></g></g><g class="cls-22"><path class="cls-23" d="M200.61,207.53c16.55-2.69,32.85-6.35,49-10.38l6.07-1.54,6-1.62c4-1.1,8.06-2.13,12-3.36s8-2.27,12-3.51l11.93-3.76c2-.59,4-1.27,5.94-1.94l5.93-2,5.92-2c2-.66,3.91-1.44,5.88-2.12l11.78-4.22,11.68-4.5c3.89-1.49,7.8-3,11.64-4.6l11.6-4.75c3.92-1.48,7.68-3.3,11.54-4.92s7.7-3.29,11.58-4.9q-5.44,3.13-10.95,6.18l-5.52,3c-.93.5-1.84,1-2.77,1.49l-2.82,1.41c-7.54,3.68-15,7.53-22.77,10.77a480.25,480.25,0,0,1-47.09,17.95,468.46,468.46,0,0,1-48.76,12.79C234.07,204.37,217.4,207,200.61,207.53Z" transform="translate(457.4 -14.49)"/></g><path class="cls-24" d="M398.24,644.31s89.3-42.52,154.21-142.46" transform="translate(457.4 -14.49)"/><path class="cls-25" d="M395.52,644.31s-89.3-42.52-154.21-142.46" transform="translate(457.4 -14.49)"/><g class="cls-26"><path class="cls-21" d="M137.53,97.92c1.85-5.9,260-32,260-32l-.35,84.31-1.71,547.25S24.72,458,137.53,97.92Z" transform="translate(457.4 -14.49)"/></g></g></g></svg>