<?xml version="1.0" encoding="UTF-8"?>
<svg width="62px" height="62px" viewBox="0 0 62 62" version="1.1" xmlns="http://www.w3.org/2000/svg" xmlns:xlink="http://www.w3.org/1999/xlink">
    <!-- Generator: Sketch 47.1 (45422) - http://www.bohemiancoding.com/sketch -->
    <title>AAA</title>
    <desc>Created with Sketch.</desc>
    <defs>
        <linearGradient x1="50%" y1="96.1834343%" x2="50%" y2="1.57844388%" id="linearGradient-1">
            <stop stop-color="#A0AAB3" offset="0%"></stop>
            <stop stop-color="#CED5DA" offset="100%"></stop>
        </linearGradient>
    </defs>
    <g id="Page-1" stroke="none" stroke-width="1" fill="none" fill-rule="evenodd">
        <g id="AAA" fill="url(#linearGradient-1)">
            <g id="Page-1">
                <path d="M30.9995,59.9998 C15.0095,59.9998 1.9995,46.9908 1.9995,30.9998 C1.9995,15.0098 15.0095,1.9998 30.9995,1.9998 C46.9905,1.9998 59.9995,15.0098 59.9995,30.9998 C59.9995,46.9908 46.9905,59.9998 30.9995,59.9998 M30.9995,-0.0002 C48.1205,-0.0002 61.9995,13.8788 61.9995,30.9998 C61.9995,48.1208 48.1205,61.9998 30.9995,61.9998 C13.8795,61.9998 -0.0005,48.1208 -0.0005,30.9998 C-0.0005,13.8788 13.8795,-0.0002 30.9995,-0.0002 Z M14.4331,32.8782 L16.5921,27.3982 L18.6791,32.8782 L14.4331,32.8782 Z M17.5431,24.2742 C17.3971,23.8882 17.0281,23.6322 16.6151,23.6302 C16.1881,23.6122 15.8291,23.8792 15.6781,24.2632 L10.4031,37.6482 C10.2011,38.1612 10.4531,38.7422 10.9671,38.9442 C11.4791,39.1492 12.0611,38.8952 12.2641,38.3812 L13.6441,34.8782 L19.4411,34.8782 L20.7701,38.3702 C20.9221,38.7692 21.3011,39.0152 21.7041,39.0152 C21.8231,39.0152 21.9431,38.9932 22.0601,38.9492 C22.5771,38.7532 22.8351,38.1742 22.6391,37.6582 L17.5431,24.2742 Z M29.311,32.8782 L31.471,27.3982 L33.557,32.8782 L29.311,32.8782 Z M32.422,24.2742 C32.276,23.8882 31.907,23.6322 31.494,23.6302 L31.488,23.6302 C31.078,23.6302 30.708,23.8812 30.557,24.2632 L25.281,37.6482 C25.079,38.1612 25.331,38.7422 25.844,38.9442 C26.36,39.1492 26.939,38.8952 27.142,38.3812 L28.523,34.8782 L34.319,34.8782 L35.648,38.3702 C35.8,38.7692 36.179,39.0152 36.582,39.0152 C36.701,39.0152 36.821,38.9932 36.938,38.9492 C37.455,38.7532 37.713,38.1752 37.517,37.6582 L32.422,24.2742 Z M44.062,32.8782 L46.222,27.3982 L48.308,32.8782 L44.062,32.8782 Z M52.268,37.6582 L47.173,24.2742 C47.027,23.8882 46.658,23.6322 46.245,23.6302 C45.86,23.6122 45.46,23.8792 45.308,24.2632 L40.032,37.6482 C39.83,38.1612 40.082,38.7422 40.595,38.9442 C41.111,39.1492 41.691,38.8952 41.893,38.3812 L43.274,34.8782 L49.07,34.8782 L50.399,38.3702 C50.551,38.7692 50.93,39.0152 51.333,39.0152 C51.452,39.0152 51.572,38.9932 51.689,38.9492 C52.206,38.7532 52.464,38.1752 52.268,37.6582 Z" id="Combined-Shape"></path>
            </g>
        </g>
    </g>
</svg>
